<svg width="38" height="38" viewBox="0 0 38 38" fill="none" xmlns="http://www.w3.org/2000/svg">
<g clip-path="url(#clip0_3_18)">
<path d="M19 38C29.4934 38 38 29.4934 38 19C38 8.50659 29.4934 0 19 0C8.50659 0 0 8.50659 0 19C0 29.4934 8.50659 38 19 38Z" fill="#4DA2FF"/>
<path fill-rule="evenodd" clip-rule="evenodd" d="M24.014 17.225C24.9214 18.3644 25.4123 19.7797 25.4052 21.2364C25.3981 22.693 24.8935 24.1035 23.975 25.234L23.898 25.334L23.878 25.213C23.86 25.113 23.84 25.007 23.816 24.903C23.368 22.936 21.91 21.25 19.509 19.884C18.8305 19.5752 18.2285 19.1205 17.7459 18.5523C17.2633 17.9841 16.912 17.3165 16.717 16.597C16.5829 15.8167 16.6468 15.0152 16.903 14.266C17.0871 13.6738 17.3734 13.1185 17.749 12.625L18.683 11.483C18.7213 11.436 18.7697 11.398 18.8245 11.372C18.8793 11.3459 18.9393 11.3324 19 11.3324C19.0607 11.3324 19.1206 11.3459 19.1755 11.372C19.2303 11.398 19.2786 11.436 19.317 11.483L24.017 17.225H24.014ZM25.491 16.084L19.232 8.435C19.2038 8.40085 19.1685 8.37335 19.1285 8.35447C19.0884 8.3356 19.0447 8.32581 19.0005 8.32581C18.9562 8.32581 18.9125 8.3356 18.8725 8.35447C18.8325 8.37335 18.7971 8.40085 18.769 8.435L12.51 16.087L12.49 16.113C11.6561 17.1537 11.0837 18.379 10.8208 19.6864C10.5579 20.9938 10.6121 22.3452 10.9788 23.6273C11.3456 24.9094 12.0143 26.085 12.9289 27.0556C13.8434 28.0261 14.9772 28.7634 16.2353 29.2056C17.4934 29.6478 18.8392 29.7821 20.1599 29.5973C21.4806 29.4124 22.7377 28.9138 23.8261 28.1431C24.9144 27.3725 25.8022 26.3523 26.4152 25.1679C27.0281 23.9835 27.3483 22.6696 27.349 21.336C27.3516 19.4358 26.7017 17.5924 25.508 16.114L25.488 16.089L25.491 16.084ZM14.008 17.204L14.567 16.519L14.584 16.646C14.597 16.746 14.614 16.846 14.633 16.946C14.8772 17.9665 15.3467 18.9194 16.007 19.7348C16.6673 20.5503 17.5017 21.2078 18.449 21.659C20.33 22.73 21.425 23.959 21.74 25.309C21.8649 25.8326 21.8987 26.3739 21.84 26.909V26.939L21.813 26.952C20.5065 27.5884 19.0224 27.7612 17.6047 27.442C16.187 27.1228 14.9201 26.3307 14.0124 25.1958C13.1047 24.061 12.6103 22.651 12.6104 21.1978C12.6105 19.7446 13.1051 18.3347 14.013 17.2L14.008 17.204Z" fill="white"/>
</g>
<defs>
<clipPath id="clip0_3_18">
<rect width="38" height="38" fill="white"/>
</clipPath>
</defs>
</svg>
